<svg width="640" height="640" viewBox="0 0 640 640" fill="none" xmlns="http://www.w3.org/2000/svg">
  <rect width="640" height="640" rx="72" fill="#090F1F" />
  <rect width="640" height="640" rx="72" fill="url(#bgGlow)" />
  <rect x="74" y="74" width="492" height="492" rx="48" fill="#0B1328" stroke="#2B3558" />
  <g opacity="0.84">
    <path d="M122 122H518V518H122V122Z" stroke="#2A3556" />
    <path d="M122 198H518M122 274H518M122 350H518M122 426H518" stroke="#243050" />
    <path d="M198 122V518M274 122V518M350 122V518M426 122V518" stroke="#243050" />
  </g>
  <circle cx="320" cy="320" r="124" fill="url(#queenGlow)" />
  <path d="M252 390L278 258L320 320L362 258L388 390H252Z" fill="#DDF9FF" />
  <circle cx="278" cy="244" r="14" fill="#5BFFD8" />
  <circle cx="320" cy="224" r="14" fill="#5BFFD8" />
  <circle cx="362" cy="244" r="14" fill="#5BFFD8" />
  <text x="320" y="556" fill="#56FFE8" font-family="Inter, Arial, sans-serif" font-size="34" font-weight="700" text-anchor="middle">QueenMind</text>
  <defs>
    <radialGradient id="bgGlow" cx="0" cy="0" r="1" gradientUnits="userSpaceOnUse" gradientTransform="translate(560 74) rotate(132) scale(410 560)">
      <stop stop-color="#17A89B" stop-opacity="0.38" />
      <stop offset="1" stop-color="#0A1022" stop-opacity="0" />
    </radialGradient>
    <radialGradient id="queenGlow" cx="0" cy="0" r="1" gradientUnits="userSpaceOnUse" gradientTransform="translate(320 320) rotate(90) scale(124)">
      <stop stop-color="#1EE9D7" stop-opacity="0.55" />
      <stop offset="1" stop-color="#0F1E39" stop-opacity="0.12" />
    </radialGradient>
  </defs>
</svg>
